<svg width="64" height="79" viewBox="0 0 64 79" fill="none" xmlns="http://www.w3.org/2000/svg">
<g opacity="0.3" clip-path="url(#clip0_1_321)">
<path d="M61.6101 73.64C60.395 73.64 59.4101 74.625 59.4101 75.84C59.4101 77.0551 60.395 78.04 61.6101 78.04C62.8251 78.04 63.8101 77.0551 63.8101 75.84C63.8101 74.625 62.8251 73.64 61.6101 73.64Z" fill="#BBB9BA"/>
<path d="M61.6101 58.9101C60.395 58.9101 59.4101 59.895 59.4101 61.1101C59.4101 62.3251 60.395 63.3101 61.6101 63.3101C62.8251 63.3101 63.8101 62.3251 63.8101 61.1101C63.8101 59.895 62.8251 58.9101 61.6101 58.9101Z" fill="#BBB9BA"/>
<path d="M59.4101 46.38C59.4101 47.6 60.4001 48.58 61.6101 48.58C62.8201 48.58 63.8101 47.59 63.8101 46.38C63.8101 45.17 62.8201 44.18 61.6101 44.18C60.4001 44.18 59.4101 45.17 59.4101 46.38Z" fill="#BBB9BA"/>
<path d="M59.4101 31.66C59.4101 32.88 60.4001 33.86 61.6101 33.86C62.8201 33.86 63.8101 32.87 63.8101 31.66C63.8101 30.45 62.8201 29.46 61.6101 29.46C60.4001 29.46 59.4101 30.45 59.4101 31.66Z" fill="#BBB9BA"/>
<path d="M61.6101 14.7301C60.395 14.7301 59.4101 15.715 59.4101 16.9301C59.4101 18.1451 60.395 19.1301 61.6101 19.1301C62.8251 19.1301 63.8101 18.1451 63.8101 16.9301C63.8101 15.715 62.8251 14.7301 61.6101 14.7301Z" fill="#BBB9BA"/>
<path d="M61.6101 2.30805e-05C60.395 2.31867e-05 59.4101 0.985001 59.4101 2.20003C59.4101 3.41505 60.395 4.40002 61.6101 4.40002C62.8251 4.40002 63.8101 3.41505 63.8101 2.20003C63.8101 0.985001 62.8251 2.29743e-05 61.6101 2.30805e-05Z" fill="#BBB9BA"/>
<path d="M46.2102 73.64C44.9951 73.64 44.0102 74.625 44.0102 75.84C44.0102 77.0551 44.9951 78.04 46.2102 78.04C47.4252 78.04 48.4102 77.0551 48.4102 75.84C48.4102 74.625 47.4252 73.64 46.2102 73.64Z" fill="#BBB9BA"/>
<path d="M46.2102 58.9101C44.9951 58.9101 44.0102 59.895 44.0102 61.1101C44.0102 62.3251 44.9951 63.3101 46.2102 63.3101C47.4252 63.3101 48.4102 62.3251 48.4102 61.1101C48.4102 59.895 47.4252 58.9101 46.2102 58.9101Z" fill="#BBB9BA"/>
<path d="M44.0102 46.38C44.0102 47.6 45.0002 48.58 46.2102 48.58C47.4202 48.58 48.4102 47.59 48.4102 46.38C48.4102 45.17 47.4202 44.18 46.2102 44.18C45.0002 44.18 44.0102 45.17 44.0102 46.38Z" fill="#BBB9BA"/>
<path d="M44.0102 31.66C44.0102 32.88 45.0002 33.86 46.2102 33.86C47.4202 33.86 48.4102 32.87 48.4102 31.66C48.4102 30.45 47.4202 29.46 46.2102 29.46C45.0002 29.46 44.0102 30.45 44.0102 31.66Z" fill="#BBB9BA"/>
<path d="M46.2102 14.7301C44.9951 14.7301 44.0102 15.715 44.0102 16.9301C44.0102 18.1451 44.9951 19.1301 46.2102 19.1301C47.4252 19.1301 48.4102 18.1451 48.4102 16.9301C48.4102 15.715 47.4252 14.7301 46.2102 14.7301Z" fill="#BBB9BA"/>
<path d="M46.2102 2.30805e-05C44.9951 2.31867e-05 44.0102 0.985001 44.0102 2.20003C44.0102 3.41505 44.9951 4.40002 46.2102 4.40002C47.4252 4.40002 48.4102 3.41505 48.4102 2.20003C48.4102 0.985001 47.4252 2.29743e-05 46.2102 2.30805e-05Z" fill="#BBB9BA"/>
<path d="M28.6103 75.84C28.6103 77.06 29.6003 78.04 30.8103 78.04C32.0203 78.04 33.0103 77.05 33.0103 75.84C33.0103 74.63 32.0203 73.64 30.8103 73.64C29.6003 73.64 28.6103 74.63 28.6103 75.84Z" fill="#BBB9BA"/>
<path d="M28.6103 61.1101C28.6103 62.3301 29.6003 63.3101 30.8103 63.3101C32.0203 63.3101 33.0103 62.3201 33.0103 61.1101C33.0103 59.9001 32.0203 58.9101 30.8103 58.9101C29.6003 58.9101 28.6103 59.9001 28.6103 61.1101Z" fill="#BBB9BA"/>
<path d="M28.6103 46.38C28.6103 47.6 29.6003 48.58 30.8103 48.58C32.0203 48.58 33.0103 47.59 33.0103 46.38C33.0103 45.17 32.0203 44.18 30.8103 44.18C29.6003 44.18 28.6103 45.17 28.6103 46.38Z" fill="#BBB9BA"/>
<path d="M28.6103 31.66C28.6103 32.88 29.6003 33.86 30.8103 33.86C32.0203 33.86 33.0103 32.87 33.0103 31.66C33.0103 30.45 32.0203 29.46 30.8103 29.46C29.6003 29.46 28.6103 30.45 28.6103 31.66Z" fill="#BBB9BA"/>
<path d="M28.6103 16.9301C28.6103 18.1501 29.6003 19.1301 30.8103 19.1301C32.0203 19.1301 33.0103 18.1401 33.0103 16.9301C33.0103 15.7201 32.0203 14.7301 30.8103 14.7301C29.6003 14.7301 28.6103 15.7201 28.6103 16.9301Z" fill="#BBB9BA"/>
<path d="M28.6103 2.20003C28.6103 3.42003 29.6003 4.40002 30.8103 4.40002C32.0203 4.40002 33.0103 3.41003 33.0103 2.20003C33.0103 0.990027 32.0203 2.29747e-05 30.8103 2.30805e-05C29.6003 2.31863e-05 28.6103 0.990028 28.6103 2.20003Z" fill="#BBB9BA"/>
<path d="M15.4104 73.64C14.1953 73.64 13.2104 74.625 13.2104 75.84C13.2104 77.0551 14.1953 78.04 15.4104 78.04C16.6254 78.04 17.6104 77.0551 17.6104 75.84C17.6104 74.625 16.6254 73.64 15.4104 73.64Z" fill="#BBB9BA"/>
<path d="M15.4104 58.9101C14.1953 58.9101 13.2104 59.895 13.2104 61.1101C13.2104 62.3251 14.1953 63.3101 15.4104 63.3101C16.6254 63.3101 17.6104 62.3251 17.6104 61.1101C17.6104 59.895 16.6254 58.9101 15.4104 58.9101Z" fill="#BBB9BA"/>
<path d="M13.2104 46.38C13.2104 47.6 14.2004 48.58 15.4104 48.58C16.6204 48.58 17.6104 47.59 17.6104 46.38C17.6104 45.17 16.6204 44.18 15.4104 44.18C14.2004 44.18 13.2104 45.17 13.2104 46.38Z" fill="#BBB9BA"/>
<path d="M13.2104 31.66C13.2104 32.88 14.2004 33.86 15.4104 33.86C16.6204 33.86 17.6104 32.87 17.6104 31.66C17.6104 30.45 16.6204 29.46 15.4104 29.46C14.2004 29.46 13.2104 30.45 13.2104 31.66Z" fill="#BBB9BA"/>
<path d="M15.4104 14.7301C14.1953 14.7301 13.2104 15.715 13.2104 16.9301C13.2104 18.1451 14.1953 19.1301 15.4104 19.1301C16.6254 19.1301 17.6104 18.1451 17.6104 16.9301C17.6104 15.715 16.6254 14.7301 15.4104 14.7301Z" fill="#BBB9BA"/>
<path d="M15.4104 2.30805e-05C14.1953 2.31867e-05 13.2104 0.985001 13.2104 2.20003C13.2104 3.41505 14.1953 4.40002 15.4104 4.40002C16.6254 4.40002 17.6104 3.41505 17.6104 2.20003C17.6104 0.985001 16.6254 2.29743e-05 15.4104 2.30805e-05Z" fill="#BBB9BA"/>
<path d="M3.20002 73.64C1.985 73.64 1.00002 74.625 1.00002 75.84C1.00002 77.0551 1.985 78.04 3.20002 78.04C4.41505 78.04 5.40002 77.0551 5.40002 75.84C5.40002 74.625 4.41505 73.64 3.20002 73.64Z" fill="#BBB9BA"/>
<path d="M3.20002 58.9101C1.985 58.9101 1.00002 59.895 1.00002 61.1101C1.00002 62.3251 1.985 63.3101 3.20002 63.3101C4.41505 63.3101 5.40002 62.3251 5.40002 61.1101C5.40002 59.895 4.41505 58.9101 3.20002 58.9101Z" fill="#BBB9BA"/>
<path d="M1.00002 46.3801C1.00002 47.6001 1.99002 48.5801 3.20002 48.5801C4.41002 48.5801 5.40002 47.5901 5.40002 46.3801C5.40002 45.1701 4.41002 44.1801 3.20002 44.1801C1.99002 44.1801 1.00002 45.1701 1.00002 46.3801Z" fill="#BBB9BA"/>
<path d="M1.00002 31.6601C1.00002 32.8801 1.99002 33.8601 3.20002 33.8601C4.41002 33.8601 5.40002 32.8701 5.40002 31.6601C5.40002 30.4501 4.41002 29.4601 3.20002 29.4601C1.99002 29.4601 1.00002 30.4501 1.00002 31.6601Z" fill="#BBB9BA"/>
<path d="M3.20002 14.7301C1.985 14.7301 1.00002 15.7151 1.00002 16.9301C1.00002 18.1452 1.985 19.1301 3.20002 19.1301C4.41505 19.1301 5.40002 18.1452 5.40002 16.9301C5.40002 15.7151 4.41505 14.7301 3.20002 14.7301Z" fill="#BBB9BA"/>
<path d="M3.20002 2.30805e-05C1.985 2.31867e-05 1.00002 0.985001 1.00002 2.20003C1.00002 3.41505 1.985 4.40002 3.20002 4.40002C4.41505 4.40002 5.40002 3.41505 5.40002 2.20003C5.40002 0.985001 4.41505 2.29743e-05 3.20002 2.30805e-05Z" fill="#BBB9BA"/>
</g>
<defs>
<clipPath id="clip0_1_321">
<rect width="63.81" height="78.04" fill="white" transform="translate(63.8101 78.04) rotate(180)"/>
</clipPath>
</defs>
</svg>
